<svg width="44" height="51" viewBox="0 0 44 51" fill="none" xmlns="http://www.w3.org/2000/svg">
<g clip-path="url(#clip0)">
<path d="M40.9793 2.58585H41.2903C41.6678 2.58585 41.9788 2.45093 41.9788 2.11363C41.9788 1.86627 41.8011 1.61892 41.3125 1.61892C41.157 1.61892 41.0681 1.61892 40.9793 1.61892V2.58585ZM40.9793 4.2049H40.4685V1.32659C40.7128 1.28162 40.9349 1.23664 41.3125 1.23664C41.7789 1.23664 42.0454 1.32659 42.2231 1.46151C42.3786 1.59643 42.4674 1.77633 42.4674 2.06865C42.4674 2.42844 42.2231 2.6758 41.9122 2.76574V2.78823C42.1565 2.8332 42.312 3.05807 42.3786 3.48532C42.4452 3.93506 42.5119 4.11495 42.5563 4.2049H42.0232C41.9566 4.11495 41.89 3.84511 41.8455 3.46283C41.7789 3.12553 41.6012 2.96813 41.2458 2.96813H40.9571V4.2049H40.9793ZM41.4457 0.539553C40.313 0.539553 39.4023 1.50648 39.4023 2.69828C39.4023 3.89008 40.313 4.85701 41.4457 4.85701C42.5785 4.85701 43.4669 3.89008 43.4669 2.69828C43.4669 1.50648 42.5785 0.539553 41.4457 0.539553ZM41.4457 0.112305C42.8672 0.112305 43.9778 1.25913 43.9778 2.69828C43.9778 4.15992 42.845 5.30675 41.4235 5.30675C40.002 5.30675 38.847 4.15992 38.847 2.69828C38.8693 1.25913 40.0242 0.112305 41.4457 0.112305Z" fill="white"/>
<path d="M4.90859 46.3453L4.48658 43.7818C4.35332 43.0398 4.19784 41.893 4.08678 41.0834H4.04236C3.9091 41.893 3.73141 43.0848 3.62035 43.7818L3.15392 46.3453H4.90859ZM2.9096 48.0094L2.35433 50.8652H0.310913L2.86518 39.0146H5.37502L7.70718 50.8652H5.64155L5.10849 48.0094H2.9096Z" fill="white"/>
<path d="M12.3715 45.5582C12.3715 45.4008 12.3715 45.2209 12.3493 45.041C12.2604 44.4563 11.9495 43.9166 11.4608 43.9166C10.6168 43.9166 10.3059 45.1534 10.3059 46.5926C10.3059 48.2566 10.7501 49.201 11.4386 49.201C11.7496 49.201 12.1049 49.0436 12.3048 48.3465C12.3493 48.2116 12.3715 48.0317 12.3715 47.8069V45.5582ZM14.4815 38.6997V48.3915C14.4815 49.1561 14.5259 50.1005 14.5482 50.8426H12.7269L12.6158 49.8531H12.5714C12.2604 50.4603 11.5941 50.9775 10.8167 50.9775C9.06204 50.9775 8.21802 49.0211 8.21802 46.5701C8.21802 43.5793 9.50626 42.1177 10.9055 42.1177C11.6385 42.1177 12.1049 42.4775 12.3493 43.0172H12.3937V38.6997H14.4815Z" fill="white"/>
<path d="M18.8793 49.3584C19.6789 49.3584 19.8788 47.8293 19.8788 46.5475C19.8788 45.3333 19.6789 43.7592 18.8349 43.7592C17.9464 43.7592 17.7465 45.3333 17.7465 46.5475C17.7687 48.0092 18.0131 49.3584 18.8793 49.3584ZM18.8349 50.9999C16.9025 50.9999 15.6809 49.4259 15.6809 46.5925C15.6809 43.5118 17.2357 42.1401 18.8793 42.1401C20.7894 42.1401 21.9888 43.8042 21.9888 46.5475C22.011 50.078 20.1231 50.9999 18.8349 50.9999Z" fill="white"/>
<path d="M25.2984 47.7844C25.2984 47.9867 25.3428 48.1891 25.3872 48.324C25.5871 49.0436 25.9647 49.2235 26.2535 49.2235C27.0753 49.2235 27.3862 48.1666 27.3862 46.5026C27.3862 44.9735 27.0308 43.9391 26.2313 43.9391C25.8315 43.9391 25.4983 44.3889 25.3872 44.8611C25.3428 45.0185 25.2984 45.2434 25.2984 45.4008V47.7844ZM23.1883 38.6997H25.2984V43.1746H25.3428C25.7648 42.5225 26.3201 42.1402 27.1197 42.1402C28.7189 42.1402 29.4963 43.9616 29.4963 46.3677C29.4963 49.3809 28.2969 51 26.7643 51C26.0314 51 25.5427 50.6627 25.0985 49.8307H25.0541L24.943 50.8651H23.1439C23.1661 50.1455 23.2106 49.1785 23.2106 48.414V38.6997H23.1883Z" fill="white"/>
<path d="M34.5381 45.738C34.5381 44.5238 34.2049 43.6918 33.5386 43.6918C32.7834 43.6918 32.4503 44.8161 32.4281 45.738H34.5381ZM32.4058 47.2447C32.4281 48.7962 33.2276 49.291 34.2271 49.291C34.8713 49.291 35.4043 49.156 35.8041 48.9986L36.0929 50.5277C35.5376 50.7751 34.6714 50.9325 33.8496 50.9325C31.584 50.9325 30.3624 49.3584 30.3624 46.705C30.3624 43.8267 31.7839 42.1177 33.6719 42.1177C35.471 42.1177 36.4705 43.6468 36.4705 46.1203C36.4705 46.6825 36.4482 47.0198 36.4038 47.2671L32.4058 47.2447Z" fill="white"/>
<path d="M22.9884 0H36.4705V32.6733L22.9884 0Z" fill="#E30613"/>
<path d="M13.4821 0H0V32.6733L13.4821 0Z" fill="#E30613"/>
<path d="M18.2353 12.0527L26.8309 32.6731H21.2116L18.6351 26.107H12.3494L18.2353 12.0527Z" fill="#E30613"/>
</g>
<defs>
<clipPath id="clip0">
<rect width="44" height="51" fill="white"/>
</clipPath>
</defs>
</svg>
