<svg width="117" height="18" viewBox="0 0 117 18" fill="none" xmlns="http://www.w3.org/2000/svg">
<g clip-path="url(#clip0)">
<path d="M19.6244 6.70932L8.45667 13.1683V18.0501L16.1423 13.5688L23.7781 9.13769L19.6244 6.70932Z" fill="#8F60ED"/>
<path d="M16.1423 4.6815L8.45667 0.225311V9.13769V13.1683L19.6244 6.70932L16.1423 4.6815Z" fill="#4DEAE4"/>
<path d="M15.4458 9.13769L7.7851 13.5688L0.12439 18.0501V9.13769V0.225311L7.7851 4.6815L15.4458 9.13769Z" fill="#E93F8C"/>
<path d="M15.4458 9.13769L8.45667 5.08206V9.13769V13.1683L15.4458 9.13769Z" fill="#F5CF2F"/>
<path d="M37.0599 5.18219C36.7863 4.7566 36.3884 4.43115 35.866 4.20583C35.3188 3.98052 34.6224 3.85535 33.7519 3.85535C32.956 3.85535 32.16 3.98052 31.3641 4.2559C30.6677 4.50625 29.9961 4.85674 29.3992 5.28233C29.2997 5.35743 29.2748 5.50764 29.3495 5.60778L30.3692 6.88455C30.4438 6.98469 30.5931 7.00973 30.6926 6.90959C31.0159 6.60917 31.3641 6.38386 31.7372 6.23365C32.1849 6.03337 32.6326 5.9082 33.1301 5.9082C33.6524 5.9082 34.0752 6.05841 34.3986 6.38386C34.697 6.65924 34.8214 7.03476 34.7965 7.43532C34.7965 7.56049 34.697 7.66063 34.5727 7.66063C34.1996 7.66063 33.8514 7.66063 33.4285 7.68567C32.9311 7.7107 32.4585 7.73574 31.9362 7.81084C31.4387 7.88594 30.9662 7.98608 30.4687 8.13629C29.9713 8.2865 29.5733 8.48678 29.1505 8.73713C28.7525 8.98747 28.4292 9.31293 28.1556 9.68845C27.882 10.064 27.7079 10.5396 27.6084 11.1154C27.5338 11.6161 27.5586 12.0417 27.683 12.4172C27.8074 12.7928 28.0063 13.0932 28.3048 13.3435C28.5784 13.5939 28.9266 13.7941 29.3246 13.9193C29.7225 14.0445 30.1454 14.1196 30.5931 14.1196C31.2149 14.1196 31.8118 13.9944 32.4088 13.7691C33.0057 13.5438 33.5032 13.1432 33.926 12.6425H33.9757L33.8265 13.5939C33.8016 13.7441 33.9011 13.8693 34.0503 13.8693H36.3386C36.463 13.8693 36.5376 13.7941 36.5625 13.669L37.3335 8.91237C37.4579 8.11126 37.5325 7.36021 37.4827 6.75938C37.4579 6.15855 37.3335 5.60778 37.0599 5.18219ZM34.3737 10.2642C34.3239 10.5897 34.2245 10.84 34.0503 11.0654C33.8762 11.2907 33.6773 11.491 33.4285 11.6412C33.1798 11.7914 32.9311 11.9165 32.6575 11.9916C32.3839 12.0668 32.0606 12.1168 31.787 12.1168C31.4387 12.1168 31.1403 12.0167 30.8667 11.8414C30.5931 11.6662 30.4687 11.3908 30.5433 11.0403C30.5931 10.6898 30.7423 10.4395 31.0159 10.2642C31.2646 10.064 31.5631 9.9388 31.8864 9.83866C32.2098 9.73852 32.558 9.68845 32.8813 9.66341C33.2047 9.63838 33.528 9.63838 33.727 9.63838H34.1996C34.3488 9.63838 34.4483 9.76355 34.4234 9.91376L34.3737 10.2642Z" fill="white"/>
<path d="M49.3717 4.08066H46.7601C46.6855 4.08066 46.6358 4.13073 46.6109 4.1808L43.3029 10.7149H43.278L41.9349 4.23087C41.91 4.15576 41.8354 4.08066 41.7608 4.08066H38.9004C38.7761 4.08066 38.7015 4.1808 38.7263 4.30597L41.0643 13.719C41.0892 13.7941 41.1638 13.8442 41.2384 13.8442H44.1734C44.248 13.8442 44.2978 13.8192 44.3226 13.7441L49.5458 4.33101C49.5956 4.23087 49.4961 4.08066 49.3717 4.08066Z" fill="white"/>
<path d="M75.9356 5.15716C75.662 4.73157 75.264 4.40612 74.7417 4.18081C74.1945 3.9555 73.4981 3.83032 72.6275 3.83032C71.8316 3.83032 71.0357 3.9555 70.2398 4.23088C69.5185 4.48123 68.8469 4.83171 68.25 5.28234C68.1505 5.35744 68.1505 5.48262 68.2251 5.58276L69.2946 6.9096C69.3693 7.00974 69.4936 7.00974 69.5931 6.93463C69.9413 6.63422 70.2647 6.38387 70.6626 6.23366C71.1103 6.03338 71.558 5.90821 72.0555 5.90821C72.5778 5.90821 73.0006 6.05842 73.324 6.38387C73.6224 6.65925 73.7468 7.03477 73.7219 7.46036C73.7219 7.5605 73.6224 7.66064 73.523 7.66064C73.1499 7.66064 72.7768 7.66064 72.3539 7.68568C71.8565 7.71071 71.3839 7.73575 70.8616 7.81085C70.3641 7.88595 69.8916 7.98609 69.3941 8.1363C68.8967 8.28651 68.4987 8.48679 68.0759 8.73714C67.6779 8.98748 67.3546 9.31294 67.081 9.68846C66.8074 10.089 66.6333 10.5396 66.5338 11.1154C66.4592 11.6161 66.484 12.0417 66.6084 12.4172C66.7328 12.7928 66.9318 13.0932 67.2302 13.3435C67.5038 13.5939 67.852 13.7942 68.25 13.9193C68.648 14.0445 69.0708 14.1196 69.5185 14.1196C70.1403 14.1196 70.7372 13.9944 71.3342 13.7691C71.9311 13.5438 72.4286 13.1433 72.8514 12.6426H72.9011L72.727 13.6189C72.7022 13.7441 72.8017 13.8693 72.926 13.8693H75.264C75.3635 13.8693 75.463 13.7942 75.463 13.694L76.234 8.91238C76.3584 8.11127 76.433 7.36022 76.3833 6.75939C76.3584 6.13352 76.2092 5.58276 75.9356 5.15716ZM73.2494 10.2392C73.1996 10.5647 73.1001 10.815 72.926 11.0403C72.7519 11.2656 72.5529 11.4659 72.3042 11.6161C72.0555 11.7663 71.8068 11.8915 71.5332 11.9666C71.2596 12.0417 70.9362 12.0918 70.6626 12.0918C70.3144 12.0918 70.0159 11.9917 69.7423 11.8164C69.4687 11.6412 69.3444 11.3658 69.419 11.0153C69.4687 10.6648 69.618 10.4145 69.8916 10.2392C70.1403 10.0389 70.4388 9.91377 70.7621 9.81363C71.0855 9.71349 71.4337 9.66342 71.757 9.63839C72.1052 9.61335 72.4037 9.61335 72.6027 9.61335H73.125C73.2494 9.61335 73.3488 9.73853 73.324 9.8637L73.2494 10.2392Z" fill="white"/>
<path d="M98.5694 5.23227C98.2461 4.78164 97.8482 4.45619 97.301 4.20584C96.7538 3.9555 96.1568 3.83032 95.4604 3.83032C94.7142 3.83032 93.9929 3.9555 93.2965 4.20584C92.6001 4.45619 91.9782 4.80668 91.4062 5.23227C90.8341 5.6829 90.3864 6.20863 89.9884 6.85953C89.5905 7.51043 89.3418 8.18637 89.2423 8.96245C89.1428 9.73853 89.1428 10.4395 89.3169 11.0654C89.491 11.7163 89.7895 12.242 90.1874 12.6926C90.6103 13.1433 91.1077 13.4687 91.7544 13.7191C92.3762 13.9694 93.0478 14.0946 93.7939 14.0946C94.565 14.0946 95.3609 13.9193 96.1568 13.5939C96.8533 13.2935 97.4751 12.8929 98.0223 12.3672C98.1217 12.267 98.1217 12.0918 97.9974 11.9917L96.5299 10.765C96.4304 10.6898 96.2812 10.6898 96.1817 10.79C95.9081 11.0654 95.6096 11.2907 95.3112 11.4659C94.9381 11.6912 94.5152 11.7914 94.0178 11.7914C93.4208 11.7914 92.9731 11.6161 92.6249 11.2656C92.3265 10.9903 92.1524 10.6147 92.0777 10.1892C92.0529 10.0389 92.1772 9.88874 92.3265 9.88874H98.7933C98.9177 9.88874 99.0172 9.7886 99.042 9.66342L99.1664 8.93742C99.2908 8.16134 99.2907 7.46036 99.1913 6.83449C99.1166 6.25869 98.8928 5.70793 98.5694 5.23227ZM96.1568 7.86092H92.7742C92.6001 7.86092 92.4757 7.68568 92.5254 7.51043C92.5752 7.38526 92.6249 7.26009 92.6995 7.15995C92.8488 6.93463 93.0229 6.73436 93.2219 6.55911C93.4457 6.38387 93.6696 6.25869 93.9183 6.13352C94.1919 6.03338 94.4904 5.95828 94.8137 5.95828C95.3609 5.95828 95.7589 6.13352 96.0573 6.50904C96.3061 6.80946 96.4055 7.18498 96.3807 7.58554C96.4055 7.78582 96.3061 7.86092 96.1568 7.86092Z" fill="white"/>
<path d="M108.27 6.38386L108.618 4.2559C108.643 4.08066 108.543 3.93045 108.369 3.90542C108.319 3.90542 108.245 3.88038 108.195 3.88038C108.021 3.85535 107.847 3.85535 107.673 3.85535C107.001 3.85535 106.429 4.00556 105.932 4.30597C105.434 4.60639 104.987 5.05702 104.564 5.65785H104.514L104.713 4.43115C104.738 4.23087 104.589 4.08066 104.414 4.08066H102.052C101.902 4.08066 101.778 4.1808 101.753 4.33101L100.261 13.4937C100.236 13.694 100.385 13.8442 100.559 13.8442H102.947C103.096 13.8442 103.221 13.7441 103.245 13.5939L103.867 9.76355C103.942 9.26286 104.041 8.83727 104.166 8.43671C104.29 8.03615 104.464 7.7107 104.688 7.41028C104.912 7.10987 105.21 6.88455 105.559 6.73435C105.932 6.58414 106.379 6.484 106.951 6.484C107.175 6.484 107.399 6.50903 107.598 6.53407C107.698 6.5591 107.797 6.5591 107.897 6.58414C108.071 6.65924 108.245 6.53407 108.27 6.38386Z" fill="white"/>
<path d="M112.622 6.33379C112.896 6.20862 113.145 6.15855 113.393 6.15855C114.015 6.15855 114.463 6.35882 114.811 6.73435C114.936 6.85952 115.135 6.88455 115.259 6.75938L116.9 5.35743C117.05 5.23226 117.05 5.00695 116.925 4.88177C116.577 4.53129 116.179 4.28094 115.657 4.13073C115.035 3.93045 114.413 3.85535 113.742 3.85535C113.219 3.85535 112.722 3.93045 112.2 4.05563C111.677 4.1808 111.23 4.38108 110.782 4.65646C110.359 4.93184 110.011 5.28233 109.712 5.68289C109.414 6.10848 109.215 6.58414 109.115 7.18497C109.016 7.81084 109.066 8.2865 109.24 8.66202C109.439 9.03754 109.712 9.33796 110.036 9.51321C110.384 9.71348 110.757 9.86369 111.18 9.96383C111.603 10.064 111.976 10.1641 112.349 10.2392C112.722 10.3394 113.02 10.4395 113.219 10.5647C113.443 10.6898 113.543 10.8901 113.493 11.1405C113.443 11.4158 113.269 11.5911 112.971 11.7163C112.672 11.8164 112.349 11.8665 112.025 11.8665C111.553 11.8665 111.205 11.7663 110.881 11.5911C110.657 11.4659 110.458 11.2907 110.26 11.0654C110.135 10.9152 109.911 10.9152 109.787 11.0403L108.12 12.6175C107.996 12.7427 107.996 12.968 108.12 13.0932C108.494 13.4687 108.941 13.719 109.488 13.8693C110.16 14.0695 110.832 14.1697 111.478 14.1697C112.001 14.1697 112.523 14.1196 113.095 14.0195C113.642 13.9193 114.14 13.7441 114.612 13.4937C115.085 13.2434 115.483 12.9179 115.831 12.5174C116.179 12.0918 116.403 11.5911 116.502 10.9652C116.602 10.3394 116.552 9.86369 116.378 9.48817C116.179 9.11265 115.906 8.81223 115.582 8.61195C115.234 8.38664 114.861 8.23643 114.438 8.13629C114.015 8.03615 113.642 7.93601 113.269 7.86091C112.896 7.76077 112.598 7.66063 112.399 7.56049C112.175 7.43532 112.075 7.26008 112.1 7.00973C112.2 6.63421 112.349 6.45896 112.622 6.33379Z" fill="white"/>
<path d="M85.4866 8.68706L85.412 8.53685L89.6403 4.43115C89.7647 4.30597 89.6901 4.08066 89.4911 4.08066H86.382C86.3323 4.08066 86.2825 4.10569 86.2328 4.13073L82.7258 7.56049C82.4771 7.81084 82.3278 8.11126 82.2781 8.43671C82.2532 8.73713 82.3029 9.03754 82.4273 9.26286L84.641 13.719C84.6658 13.7941 84.7404 13.8442 84.8151 13.8442H87.7003C87.8495 13.8442 87.949 13.694 87.8744 13.5438L85.4866 8.68706Z" fill="white"/>
<path d="M65.1906 5.30738C64.9916 4.93186 64.6683 4.63144 64.2952 4.43117C63.8724 4.20585 63.3749 4.10571 62.7282 4.10571C62.0318 4.10571 61.41 4.23089 60.8877 4.50627C60.44 4.73158 60.0669 5.08207 59.6938 5.53269C59.5943 5.65787 59.4202 5.63283 59.3456 5.48263C59.1466 5.05703 58.873 4.75662 58.4999 4.5313C58.0025 4.25592 57.4553 4.10571 56.7837 4.10571C56.4355 4.10571 56.1122 4.15578 55.7888 4.25592C55.4655 4.35606 55.1919 4.48123 54.9431 4.60641C54.6944 4.75662 54.4457 4.93186 54.2716 5.1071C54.0726 5.28235 53.9234 5.48263 53.799 5.65787H53.7244L53.8736 4.60641C53.8985 4.48123 53.799 4.35606 53.6747 4.35606H51.262C51.1625 4.35606 51.063 4.43117 51.063 4.5313L49.7448 13.669C49.7199 13.7942 49.8194 13.9193 49.9438 13.9193H52.4559C52.5554 13.9193 52.6549 13.8442 52.6549 13.7441L53.3264 9.1377C53.3762 8.81225 53.4259 8.51183 53.5254 8.23645C53.6 7.93603 53.7244 7.68568 53.8985 7.46037C54.0477 7.23506 54.2716 7.03478 54.5203 6.90961C54.769 6.7594 55.0924 6.70933 55.4655 6.70933C55.8137 6.70933 56.0624 6.78443 56.1868 6.95968C56.336 7.10989 56.4355 7.31016 56.4852 7.53548C56.535 7.76079 56.535 8.01114 56.5101 8.23645C56.4852 8.4868 56.4604 8.71211 56.4355 8.88735L55.7639 13.7191C55.7391 13.8442 55.8386 13.9694 55.9629 13.9694H58.4502C58.5497 13.9694 58.6491 13.8943 58.6491 13.7942L59.3456 8.91239C59.3953 8.61197 59.4699 8.33659 59.5446 8.08624C59.644 7.81086 59.7684 7.58555 59.9425 7.4103C60.1166 7.21002 60.3156 7.05982 60.5643 6.93464C60.813 6.80947 61.1115 6.7594 61.4349 6.7594C61.9323 6.7594 62.2308 6.93464 62.3551 7.26009C62.5044 7.58555 62.5292 7.96107 62.4795 8.41169L61.7333 13.7441C61.7085 13.8693 61.8079 13.9944 61.9323 13.9944H64.4942C64.5937 13.9944 64.6932 13.9193 64.6932 13.8192L65.4642 8.33659C65.5388 7.73575 65.5637 7.21002 65.5388 6.70933C65.4891 6.13353 65.3647 5.6829 65.1906 5.30738Z" fill="white"/>
<path d="M82.1785 1.17664H79.6912C79.5917 1.17664 79.5171 1.25174 79.4923 1.35188L77.5025 13.5188C77.4776 13.7191 77.6268 13.9193 77.8507 13.9193H80.0643C80.2384 13.9193 80.3628 13.7942 80.4125 13.6189L82.4023 1.40195C82.3775 1.30181 82.3028 1.17664 82.1785 1.17664Z" fill="white"/>
</g>
<defs>
<clipPath id="clip0">
<rect width="117" height="18" fill="white"/>
</clipPath>
</defs>
</svg>
