<svg width="27" height="28" viewBox="0 0 27 28" fill="none" xmlns="http://www.w3.org/2000/svg">
<g clip-path="url(#clip0)">
<path d="M15.3228 27.9453H10.9906C10.267 27.9453 9.67831 27.3361 9.67831 26.5871V16.4733H7.15077C6.42714 16.4733 5.8385 15.8639 5.8385 15.1151V10.7813C5.8385 10.0324 6.42714 9.42313 7.15077 9.42313H9.67831V7.25293C9.67831 5.10111 10.3311 3.27036 11.566 1.95892C12.8065 0.64151 14.54 -0.0546875 16.5792 -0.0546875L19.8832 -0.0491333C20.6056 -0.0478516 21.1932 0.561401 21.1932 1.30908V5.33289C21.1932 6.08185 20.6047 6.6911 19.8813 6.6911L17.6568 6.69196C16.9784 6.69196 16.8056 6.83273 16.7687 6.87589C16.7078 6.94745 16.6353 7.14975 16.6353 7.70837V9.42291H19.7141C19.9459 9.42291 20.1705 9.48209 20.3635 9.5936C20.7798 9.83435 21.0386 10.2896 21.0386 10.7816L21.0369 15.1153C21.0369 15.8639 20.4483 16.4731 19.7247 16.4731H16.6353V26.5871C16.6353 27.3361 16.0465 27.9453 15.3228 27.9453ZM11.2643 26.3038H15.0492V15.7385C15.0492 15.2384 15.4424 14.8316 15.9253 14.8316H19.451L19.4524 11.0646H15.9251C15.4421 11.0646 15.0492 10.6579 15.0492 10.1578V7.70837C15.0492 7.06708 15.1121 6.33777 15.5798 5.78961C16.1449 5.12695 17.0355 5.05048 17.6564 5.05048L19.6072 5.04962V1.59192L16.5779 1.58679C13.3008 1.58679 11.2643 3.75806 11.2643 7.25293V10.1578C11.2643 10.6577 10.8713 11.0646 10.3883 11.0646H7.42445V14.8316H10.3883C10.8713 14.8316 11.2643 15.2384 11.2643 15.7385V26.3038ZM19.8801 1.59235H19.8803H19.8801Z" fill="#31C2BD"/>
</g>
<defs>
<clipPath id="clip0">
<rect width="27" height="28" fill="white"/>
</clipPath>
</defs>
</svg>
