<svg width="425" height="87" viewBox="0 0 425 87" fill="none" xmlns="http://www.w3.org/2000/svg">
<g clip-path="url(#clip0)">
<path d="M10.5708 33.7639H0V0.17865H33.9711V10.6294H10.5708V33.7639Z" fill="url(#paint0_linear)"/>
<path d="M87.7285 33.7639H77.2481V10.6294H53.7574V0.17865H87.7285V33.7639Z" fill="url(#paint1_linear)"/>
<path d="M87.9092 87H53.9381V76.5493H77.3384V53.4148H87.9092V87Z" fill="url(#paint2_linear)"/>
<path d="M34.1526 87H0.181519V53.4148H10.662V76.5493H34.1526V87Z" fill="url(#paint3_linear)"/>
<path d="M33.9711 42.8748C39.0607 42.8748 43.1866 38.7957 43.1866 33.7639C43.1866 28.7321 39.0607 24.653 33.9711 24.653C28.8814 24.653 24.7555 28.7321 24.7555 33.7639C24.7555 38.7957 28.8814 42.8748 33.9711 42.8748Z" fill="url(#paint4_linear)"/>
<path d="M125.494 20.9908L98.2993 30.8162V43.5893V56.3624L125.494 66.2772V43.5893V20.9908Z" fill="url(#paint5_linear)"/>
<path d="M159.827 33.0493V38.1407H172.386V45.6437H159.827V55.1119H149.708V25.5462H174.102V33.0493H159.827Z" fill="white"/>
<path d="M177.264 25.5462H187.383V55.2012H177.264V25.5462Z" fill="white"/>
<path d="M192.352 25.5462H202.471V47.4302H216.024V55.2012H192.352V25.5462Z" fill="white"/>
<path d="M245.568 55.2012L245.477 41.7136L238.972 52.5216H234.545L228.04 42.1602V55.2012H218.824V25.5462H227.137L236.894 41.3563L246.381 25.5462H254.693L254.783 55.2012H245.568Z" fill="white"/>
<path d="M286.496 55.2012L286.405 41.7136L279.9 52.5216H275.473L268.968 42.1602V55.2012H259.752V25.5462H268.064L277.822 41.3563L287.309 25.5462H295.621L295.711 55.2012H286.496Z" fill="white"/>
<path d="M321.009 50.0205H309.625L307.637 55.2012H297.337L310.438 25.5462H320.376L333.477 55.2012H322.996L321.009 50.0205ZM318.298 42.8747L315.407 35.3717L312.516 42.8747H318.298Z" fill="white"/>
<path d="M347.391 45.3758L345.132 47.8768V55.2012H335.193V25.5462H345.132V36.3542L354.98 25.5462H366.002L353.986 38.5873L366.635 55.2012H354.889L347.391 45.3758Z" fill="white"/>
<path d="M392.926 47.6982V55.2012H367.99V25.5462H392.384V33.0493H377.928V36.5329H390.577V43.768H377.928V47.6982H392.926Z" fill="white"/>
<path d="M409.731 47.7875H407.021V55.2906H396.901V25.5462H411.357C419.76 25.5462 425 29.8337 425 36.7115C425 40.999 422.922 44.2146 419.308 46.001L425.632 55.2012H414.791L409.731 47.7875ZM410.634 33.2279H406.93V40.1951H410.634C413.435 40.1951 414.791 38.8552 414.791 36.7115C414.791 34.5678 413.435 33.2279 410.634 33.2279Z" fill="white"/>
<path d="M172.295 71.5473C172.295 77.0852 168.048 80.5688 161.272 80.5688H157.749V86.4641H149.617V62.5257H161.272C168.048 62.5257 172.295 66.0093 172.295 71.5473ZM164.073 71.5473C164.073 69.8501 162.989 68.7783 160.73 68.7783H157.749V74.4056H160.73C163.079 74.3163 164.073 73.2444 164.073 71.5473Z" fill="white"/>
<path d="M185.305 80.3902H183.137V86.3748H175.005V62.5257H186.66C193.346 62.5257 197.683 66.0093 197.683 71.5473C197.683 75.0308 196.056 77.6212 193.165 79.0503L198.225 86.4641H189.551L185.305 80.3902ZM186.118 68.7783H183.137V74.4056H186.118C188.377 74.4056 189.461 73.3337 189.461 71.6366C189.371 69.8501 188.377 68.7783 186.118 68.7783Z" fill="white"/>
<path d="M199.761 74.4949C199.761 67.2598 205.543 61.9897 213.403 61.9897C221.264 61.9897 227.046 67.2598 227.046 74.4949C227.046 81.73 221.264 87 213.403 87C205.543 87 199.761 81.73 199.761 74.4949ZM218.824 74.4949C218.824 70.7433 216.385 68.5103 213.403 68.5103C210.422 68.5103 207.982 70.7433 207.982 74.4949C207.982 78.2464 210.422 80.4795 213.403 80.4795C216.385 80.4795 218.824 78.1571 218.824 74.4949Z" fill="white"/>
<path d="M238.159 68.5996V72.7084H248.278V78.7824H238.159V86.4641H230.028V62.5257H249.633V68.5996H238.159Z" fill="white"/>
<path d="M252.163 62.5257H260.294V86.3748H252.163V62.5257Z" fill="white"/>
<path d="M262.734 84.499L265.354 78.6037C267.613 79.9435 270.684 80.7474 273.305 80.7474C275.654 80.7474 276.467 80.3008 276.467 79.4076C276.467 76.3706 263.095 78.8717 263.095 69.9394C263.095 65.4733 266.89 61.9004 274.389 61.9004C277.641 61.9004 280.984 62.615 283.514 63.9548L281.075 69.7608C278.725 68.5996 276.467 67.9743 274.389 67.9743C272.04 67.9743 271.227 68.6889 271.227 69.4928C271.227 72.3511 284.598 69.9394 284.598 78.7823C284.598 83.1591 280.804 86.8213 273.305 86.8213C269.239 87 265.173 86.0174 262.734 84.499Z" fill="white"/>
<path d="M285.411 84.499L288.031 78.6037C290.29 79.9435 293.362 80.7474 295.982 80.7474C298.331 80.7474 299.144 80.3008 299.144 79.4076C299.144 76.3706 285.773 78.8717 285.773 69.9394C285.773 65.4733 289.567 61.9004 297.066 61.9004C300.319 61.9004 303.662 62.615 306.192 63.9548L303.752 69.7608C301.403 68.5996 299.144 67.9743 297.066 67.9743C294.717 67.9743 293.904 68.6889 293.904 69.4928C293.904 72.3511 307.276 69.9394 307.276 78.7823C307.276 83.1591 303.481 86.8213 295.982 86.8213C291.916 87 287.851 86.0174 285.411 84.499Z" fill="white"/>
<path d="M309.625 62.5257H317.756V86.3748H309.625V62.5257Z" fill="white"/>
<path d="M320.738 74.4949C320.738 67.2598 326.52 61.9897 334.38 61.9897C342.241 61.9897 348.023 67.2598 348.023 74.4949C348.023 81.73 342.241 87 334.38 87C326.52 87 320.738 81.73 320.738 74.4949ZM339.801 74.4949C339.801 70.7433 337.362 68.5103 334.38 68.5103C331.399 68.5103 328.959 70.7433 328.959 74.4949C328.959 78.2464 331.399 80.4795 334.38 80.4795C337.362 80.4795 339.801 78.1571 339.801 74.4949Z" fill="white"/>
<path d="M374.766 62.5257V86.3748H368.08L358.865 75.5668V86.3748H350.914V62.5257H357.6L366.815 73.423V62.5257H374.766Z" fill="white"/>
<path d="M395.185 82.2659H385.969L384.343 86.4641H376.031L386.692 62.5257H394.733L405.304 86.3748H396.901L395.185 82.2659ZM392.926 76.46L390.577 70.4754L388.228 76.46H392.926Z" fill="white"/>
<path d="M406.569 62.5257H414.7V80.1222H425.632V86.3748H406.569V62.5257Z" fill="white"/>
<path d="M194.972 4.3768H149.708V6.43122H194.972V4.3768Z" fill="#4DEAE4"/>
<path d="M425.542 4.3768H380.277V6.43122H425.542V4.3768Z" fill="#4DEAE4"/>
<path d="M223.974 6.96715L221.806 0.17865H219.095L216.837 6.87783L214.759 0.17865H211.687L215.12 10.6294H218.282L220.36 4.28748L222.438 10.6294H225.601L229.034 0.17865H226.233L223.974 6.96715Z" fill="#4DEAE4"/>
<path d="M243.399 0C240.056 0 237.527 2.32238 237.527 5.44867C237.527 8.57495 240.056 10.8973 243.399 10.8973C246.742 10.8973 249.272 8.57495 249.272 5.44867C249.272 2.32238 246.742 0 243.399 0ZM243.399 8.3963C241.773 8.3963 240.508 7.23511 240.508 5.44867C240.508 3.66222 241.773 2.50103 243.399 2.50103C245.026 2.50103 246.29 3.66222 246.29 5.44867C246.29 7.23511 244.935 8.3963 243.399 8.3963Z" fill="#4DEAE4"/>
<path d="M267.974 4.10884C267.974 1.69713 266.167 0.267975 263.276 0.267975H258.488V10.7187H261.469V7.86038H263.095L264.993 10.6294H268.155L265.896 7.32444C267.251 6.69919 267.974 5.62732 267.974 4.10884ZM263.095 5.62732H261.469V2.50103H263.095C264.36 2.50103 264.993 3.03697 264.993 4.01951C264.993 5.00206 264.36 5.62732 263.095 5.62732Z" fill="#4DEAE4"/>
<path d="M287.67 0.17865H284.327L280.262 4.55545V0.17865H277.37V10.6294H280.262V8.03902L281.436 6.87783L284.418 10.6294H287.851L283.333 4.82341L287.67 0.17865Z" fill="#4DEAE4"/>
<path d="M298.783 3.2156C298.783 2.67967 299.235 2.23306 300.5 2.23306C301.403 2.23306 302.397 2.50102 303.391 3.03696L304.294 0.803899C303.21 0.178642 301.855 -0.089325 300.5 -0.089325C297.337 -0.089325 295.802 1.42916 295.802 3.30493C295.802 7.14579 301.765 5.9846 301.765 7.5924C301.765 8.12834 301.313 8.48563 300.048 8.48563C298.783 8.48563 297.518 8.03901 296.524 7.41376L295.531 9.55749C296.524 10.2721 298.241 10.7187 299.958 10.7187C303.12 10.7187 304.656 9.2002 304.656 7.32443C304.746 3.66222 298.783 4.82341 298.783 3.2156Z" fill="#4DEAE4"/>
<path d="M320.828 4.10883H316.762V0.17865H313.781V10.6294H316.762V6.60986H320.828V10.6294H323.81V0.17865H320.828V4.10883Z" fill="#4DEAE4"/>
<path d="M338.988 0C335.645 0 333.115 2.32238 333.115 5.44867C333.115 8.57495 335.645 10.8973 338.988 10.8973C342.331 10.8973 344.861 8.57495 344.861 5.44867C344.861 2.32238 342.331 0 338.988 0ZM338.988 8.3963C337.362 8.3963 336.097 7.23511 336.097 5.44867C336.097 3.66222 337.362 2.50103 338.988 2.50103C340.614 2.50103 341.879 3.66222 341.879 5.44867C341.879 7.23511 340.614 8.3963 338.988 8.3963Z" fill="#4DEAE4"/>
<path d="M358.955 0.17865H354.167V10.6294H357.148V7.9497H358.955C361.846 7.9497 363.653 6.43122 363.653 4.10883C363.653 1.69713 361.846 0.17865 358.955 0.17865ZM358.774 5.62732H357.148V2.50103H358.774C360.039 2.50103 360.672 3.03697 360.672 4.01951C360.581 5.00206 359.949 5.62732 358.774 5.62732Z" fill="#4DEAE4"/>
</g>
<defs>
<linearGradient id="paint0_linear" x1="-0.98751" y1="17.0146" x2="124.612" y2="17.0146" gradientUnits="userSpaceOnUse">
<stop stop-color="#E93F8C"/>
<stop offset="1" stop-color="#4DEAE4"/>
</linearGradient>
<linearGradient id="paint1_linear" x1="-0.98749" y1="17.0146" x2="124.612" y2="17.0146" gradientUnits="userSpaceOnUse">
<stop stop-color="#E93F8C"/>
<stop offset="1" stop-color="#4DEAE4"/>
</linearGradient>
<linearGradient id="paint2_linear" x1="-0.987551" y1="70.1773" x2="124.612" y2="70.1773" gradientUnits="userSpaceOnUse">
<stop stop-color="#E93F8C"/>
<stop offset="1" stop-color="#4DEAE4"/>
</linearGradient>
<linearGradient id="paint3_linear" x1="-0.986689" y1="70.1773" x2="124.612" y2="70.1773" gradientUnits="userSpaceOnUse">
<stop stop-color="#E93F8C"/>
<stop offset="1" stop-color="#4DEAE4"/>
</linearGradient>
<linearGradient id="paint4_linear" x1="-0.987546" y1="33.8069" x2="124.612" y2="33.8069" gradientUnits="userSpaceOnUse">
<stop stop-color="#E93F8C"/>
<stop offset="1" stop-color="#4DEAE4"/>
</linearGradient>
<linearGradient id="paint5_linear" x1="-0.987449" y1="43.596" x2="124.612" y2="43.596" gradientUnits="userSpaceOnUse">
<stop stop-color="#E93F8C"/>
<stop offset="1" stop-color="#4DEAE4"/>
</linearGradient>
<clipPath id="clip0">
<rect width="425" height="87" fill="white"/>
</clipPath>
</defs>
</svg>
