<svg width="24" height="24" viewBox="0 0 24 24" fill="none" xmlns="http://www.w3.org/2000/svg">
<path d="M0.366211 23.9032H6.58047V7.56201H0.366211V23.9032ZM1.77246 8.96826H5.17422V22.4969H1.77246V8.96826Z" fill="#31C2BD"/>
<path d="M3.47339 0.0966797C1.55812 0.0966797 0 1.65485 0 3.57007C0 5.48529 1.55812 7.04351 3.47339 7.04351C5.38866 7.04351 6.94683 5.48534 6.94683 3.57007C6.94683 1.6548 5.38861 0.0966797 3.47339 0.0966797ZM1.40625 3.57007C1.40625 2.43026 2.33353 1.50293 3.47339 1.50293C4.61325 1.50293 5.54058 2.43021 5.54058 3.57007C5.54058 4.70993 4.61325 5.63726 3.47339 5.63726C2.33353 5.63726 1.40625 4.70988 1.40625 3.57007Z" fill="#31C2BD"/>
<path d="M23.985 12.6933C23.7638 9.51257 21.1107 7.06152 17.8214 7.06152C16.3502 7.06152 14.9613 7.57302 13.867 8.48062V7.56187H7.91248V23.9031H14.1268V14.9657C14.1268 13.9585 14.9462 13.139 15.9535 13.139C16.9607 13.139 17.7802 13.9585 17.7802 14.9661L17.7862 23.9031H24V12.7084L23.985 12.6933ZM12.7205 22.4969H9.31872V8.96816H12.4607V10.9766L13.5859 10.9831L13.795 10.6585C14.6786 9.28673 16.1838 8.46782 17.8214 8.46782C20.4387 8.46782 22.5344 10.4648 22.5924 13.014L22.5938 22.4969H19.1915L19.1864 14.9657C19.1864 13.1831 17.7361 11.7328 15.9535 11.7328C14.1708 11.7328 12.7205 13.1831 12.7205 14.9657V22.4969Z" fill="#31C2BD"/>
</svg>
