<svg width="28" height="28" viewBox="0 0 28 28" fill="none" xmlns="http://www.w3.org/2000/svg">
<g clip-path="url(#clip0)">
<path d="M18.3097 12.7415L12.1239 9.35682C11.7682 9.1622 11.3478 9.16947 10.9992 9.37604C10.6503 9.58283 10.4423 9.94812 10.4423 10.3536V17.0648C10.4423 17.4683 10.649 17.833 10.9955 18.04C11.1765 18.148 11.3771 18.2023 11.5781 18.2023C11.7622 18.2023 11.9468 18.1568 12.1166 18.0654L18.3027 14.739C18.6699 14.5414 18.8991 14.1597 18.9008 13.7425C18.9023 13.3253 18.6759 12.9418 18.3097 12.7415ZM12.0831 16.2205V11.2047L16.7063 13.7344L12.0831 16.2205Z" fill="#31C2BD"/>
<path d="M27.794 8.39603L27.7927 8.38321C27.769 8.15784 27.5329 6.1532 26.5584 5.13358C25.4319 3.9343 24.1549 3.7886 23.5407 3.71875C23.4899 3.71298 23.4433 3.70764 23.4017 3.70209L23.3528 3.69696C19.6511 3.4278 14.0608 3.39105 14.0049 3.39084L13.9999 3.39062L13.995 3.39084C13.9391 3.39105 8.34878 3.4278 4.61381 3.69696L4.56447 3.70209C4.52473 3.70743 4.48094 3.71234 4.4333 3.7179C3.82619 3.78796 2.56283 3.93387 1.43319 5.17651C0.505003 6.18524 0.236693 8.14694 0.209136 8.3674L0.205932 8.39603C0.197601 8.48981 0 10.7224 0 12.9637V15.0589C0 17.3003 0.197601 19.5328 0.205932 19.6268L0.207427 19.6409C0.231139 19.8627 0.466978 21.8306 1.43704 22.8506C2.49618 24.0097 3.83537 24.1631 4.55571 24.2456C4.66957 24.2586 4.76762 24.2697 4.83448 24.2815L4.89921 24.2904C7.0365 24.4938 13.7376 24.594 14.0217 24.5981L14.0303 24.5983L14.0388 24.5981C14.0948 24.5978 19.6849 24.5611 23.3865 24.2919L23.4354 24.2868C23.4822 24.2806 23.5348 24.2751 23.5924 24.2691C24.1961 24.205 25.4527 24.0719 26.5667 22.8461C27.4949 21.8372 27.7634 19.8755 27.7908 19.6552L27.794 19.6266C27.8023 19.5326 28.0001 17.3003 28.0001 15.0589V12.9637C27.9999 10.7224 27.8023 8.49002 27.794 8.39603ZM26.3591 15.0589C26.3591 17.1334 26.1779 19.2699 26.1608 19.466C26.0912 20.0062 25.8081 21.2474 25.3559 21.7389C24.6586 22.506 23.9423 22.5821 23.4194 22.6374C23.3562 22.644 23.2976 22.6505 23.2447 22.6571C19.6644 22.916 14.2851 22.9557 14.0373 22.9572C13.7594 22.9532 7.15634 22.8521 5.08421 22.6596C4.97804 22.6423 4.86332 22.6291 4.74241 22.6154C4.1291 22.5451 3.28957 22.449 2.644 21.7389L2.62883 21.7227C2.1845 21.2598 1.90957 20.0992 1.83971 19.4724C1.82668 19.3241 1.64083 17.1625 1.64083 15.0589V12.9637C1.64083 10.8916 1.82156 8.75748 1.83907 8.55731C1.92217 7.92093 2.21056 6.75497 2.644 6.28372C3.36263 5.49332 4.12035 5.40573 4.6215 5.34784C4.66935 5.34229 4.714 5.33716 4.75523 5.33182C8.38766 5.07162 13.8055 5.03296 13.9999 5.03146C14.1943 5.03275 19.6103 5.07162 23.2105 5.33182C23.2547 5.33737 23.303 5.34293 23.3549 5.34891C23.8704 5.40765 24.6494 5.49652 25.3644 6.25916L25.3711 6.2662C25.8154 6.72913 26.0903 7.91003 26.1602 8.54941C26.1726 8.68933 26.3591 10.8557 26.3591 12.9637V15.0589Z" fill="#31C2BD"/>
</g>
<defs>
<clipPath id="clip0">
<rect width="28" height="28" fill="white"/>
</clipPath>
</defs>
</svg>
