<svg width="30" height="30" viewBox="0 0 30 30" fill="none" xmlns="http://www.w3.org/2000/svg">
<path d="M15 0C6.71572 0 0 6.71572 0 15C0 23.2842 6.71572 29.9999 15 29.9999C23.2842 29.9999 29.9999 23.2842 29.9999 15C29.9911 6.71942 23.2806 0.00885184 15 0ZM6.66863 5.19421C8.99516 3.21975 11.9486 2.13806 15 2.1429C18.0388 2.14196 20.9788 3.22251 23.2939 5.19113L5.1868 23.2982C0.596714 17.8897 1.26016 9.78429 6.66863 5.19421ZM23.3314 24.8058C21.0048 26.7803 18.0514 27.8619 15 27.8571C11.9612 27.858 9.02115 26.7775 6.70611 24.8089L24.8133 6.70172C29.4033 12.1103 28.7398 20.2157 23.3314 24.8058Z" fill="white"/>
</svg>
