<svg width="29" height="29" viewBox="0 0 29 29" fill="none" xmlns="http://www.w3.org/2000/svg">
<path d="M26.4512 4.30469H2.54883C1.14057 4.30469 0 5.45234 0 6.85352V22.1465C0 23.556 1.14896 24.6953 2.54883 24.6953H26.4512C27.8476 24.6953 29 23.5608 29 22.1465V6.85352C29 5.45483 27.864 4.30469 26.4512 4.30469ZM26.0942 6.00391C25.5735 6.52188 16.6117 15.4364 16.3023 15.7442C15.8209 16.2257 15.1808 16.4907 14.5 16.4907C13.8192 16.4907 13.1791 16.2256 12.6961 15.7426C12.488 15.5356 3.62517 6.7195 2.90578 6.00391H26.0942ZM1.69922 21.8006V7.20044L9.042 14.5045L1.69922 21.8006ZM2.90685 22.9961L10.2467 15.7029L11.4962 16.9457C12.2985 17.7481 13.3653 18.19 14.5 18.19C15.6347 18.19 16.7015 17.7481 17.5022 16.9473L18.7533 15.7029L26.0931 22.9961H2.90685ZM27.3008 21.8006L19.958 14.5045L27.3008 7.20044V21.8006Z" fill="white"/>
</svg>
