<svg width="67" height="67" viewBox="0 0 67 67" fill="none" xmlns="http://www.w3.org/2000/svg">
<path d="M25.7297 15.75C29.0014 10.0833 37.1805 10.0833 40.4521 15.75L51.7892 35.3864C55.0608 41.053 50.9713 48.1364 44.428 48.1364H21.7538C15.2105 48.1364 11.121 41.053 14.3926 35.3864L25.7297 15.75Z" stroke="#4DEAE4" stroke-width="3"/>
<path d="M29.6629 23.2545H36.6829L35.5129 34.4865H30.8329L29.6629 23.2545ZM33.1729 41.7145C32.1676 41.7145 31.3443 41.4112 30.7029 40.8045C30.0616 40.1979 29.7409 39.4612 29.7409 38.5945C29.7409 37.7105 30.0616 36.9825 30.7029 36.4105C31.3443 35.8212 32.1676 35.5265 33.1729 35.5265C34.1783 35.5265 35.0016 35.8212 35.6429 36.4105C36.2843 36.9825 36.6049 37.7105 36.6049 38.5945C36.6049 39.4612 36.2843 40.1979 35.6429 40.8045C35.0016 41.4112 34.1783 41.7145 33.1729 41.7145Z" fill="#4DEAE4"/>
</svg>
